<svg id="Layer_1" data-name="Layer 1" xmlns="http://www.w3.org/2000/svg" viewBox="0 0 421.2 161.52"><defs><style>.cls-1{fill:#676767;}.cls-1,.cls-2{fill-rule:evenodd;}.cls-2{fill:#0f6fb3;}</style></defs><path class="cls-1" d="M193.72,170.27a29,29,0,0,1-11.36-2.22,27.48,27.48,0,0,1-9.27-6.3,28.92,28.92,0,0,1-6.25-9.62,32.05,32.05,0,0,1-2.21-11.92v-19.9a32,32,0,0,1,2.21-11.91,29,29,0,0,1,6.25-9.62,27.66,27.66,0,0,1,9.27-6.31,30.88,30.88,0,0,1,26.9,1.92,31.51,31.51,0,0,1,9.52,9.67,7.26,7.26,0,0,1,1.33,4.32,6.2,6.2,0,0,1-1.92,4.6,6.93,6.93,0,0,1-5,1.93,6.1,6.1,0,0,1-2.66-.6,4.6,4.6,0,0,1-2-1.8,46,46,0,0,0-2.64-3.85,14.32,14.32,0,0,0-2.75-2.58c-2.33-1.59-5.48-2.39-9.48-2.39a16.6,16.6,0,0,0-6.2,1.14,14.2,14.2,0,0,0-5,3.3,14.82,14.82,0,0,0-3.4,5.28,18.81,18.81,0,0,0-1.17,6.78v20.14a18.81,18.81,0,0,0,1.17,6.78,14.73,14.73,0,0,0,3.4,5.28,14.06,14.06,0,0,0,5,3.3,16.41,16.41,0,0,0,6.2,1.15q5.92,0,9.42-2.46a14.15,14.15,0,0,0,2.85-2.64,31.54,31.54,0,0,0,2.6-3.73,4.73,4.73,0,0,1,2-1.74,6.1,6.1,0,0,1,2.66-.59,6.92,6.92,0,0,1,5,1.92,6.39,6.39,0,0,1,2,4.73,8.31,8.31,0,0,1-1.45,4.3,31,31,0,0,1-4.07,5.06,26.35,26.35,0,0,1-12.29,7.45,30,30,0,0,1-8.64,1.13" transform="translate(-31.52 -33.59)"/><path class="cls-1" d="M251.82,157a15.66,15.66,0,0,0,6.14-1.23,15.63,15.63,0,0,0,8.47-8.56,16,16,0,0,0,0-12.22,16,16,0,0,0-3.35-5.1,15.56,15.56,0,0,0-5.1-3.4,15.93,15.93,0,0,0-6.16-1.22,15.67,15.67,0,0,0-6.06,1.2,15.87,15.87,0,0,0-8.52,8.52,16,16,0,0,0,0,12.22,16.31,16.31,0,0,0,8.45,8.56,15.47,15.47,0,0,0,6.13,1.23m0,13.31A28.24,28.24,0,0,1,240.6,168a29.55,29.55,0,0,1-15.69-15.68,28.37,28.37,0,0,1-2.25-11.26,28.8,28.8,0,0,1,2.27-11.3,30.18,30.18,0,0,1,6.31-9.44,29.19,29.19,0,0,1,9.36-6.3,28.91,28.91,0,0,1,22.46,0,28.87,28.87,0,0,1,9.37,6.32,30.27,30.27,0,0,1,6.29,9.42A29,29,0,0,1,281,141.05v22.26a6.61,6.61,0,0,1-2,4.81,6.8,6.8,0,0,1-8.82.73,6.22,6.22,0,0,1-2.27-3.44A28.46,28.46,0,0,1,251.82,170.27Z" transform="translate(-31.52 -33.59)"/><path class="cls-1" d="M375.3,170.33a29.56,29.56,0,0,1-11.39-2.21,29.45,29.45,0,0,1-15.68-15.56A28.56,28.56,0,0,1,346,141.24V101.05a6.32,6.32,0,0,1,2-4.79,6.47,6.47,0,0,1,4.69-2,6.86,6.86,0,0,1,4.85,1.93,6.64,6.64,0,0,1,2.11,4.85v9.66h21a6.76,6.76,0,0,1,6.72,6.72,5.89,5.89,0,0,1-.54,2.43,7,7,0,0,1-1.43,2.07,6.5,6.5,0,0,1-4.75,1.92h-21v17.51a15.9,15.9,0,0,0,1.16,6.08,15.17,15.17,0,0,0,3.32,5,14.79,14.79,0,0,0,5,3.4A16,16,0,0,0,375.3,157a15.12,15.12,0,0,0,10.15-3.54,11.71,11.71,0,0,1,2.48-1.74,5.93,5.93,0,0,1,6.69,1.25,6.54,6.54,0,0,1,1.87,4.56,7.25,7.25,0,0,1-2.42,5.59,25,25,0,0,1-8.54,5.39,28.7,28.7,0,0,1-10.23,1.8" transform="translate(-31.52 -33.59)"/><path class="cls-1" d="M425.73,170.27a27.33,27.33,0,0,1-10.91-2.19,27.91,27.91,0,0,1-9.07-6.15,28.89,28.89,0,0,1-6.06-9.09A27.91,27.91,0,0,1,397.54,142V118.51a6.66,6.66,0,0,1,13.31,0v23.56a14.71,14.71,0,0,0,1.15,5.82,14.59,14.59,0,0,0,7.92,7.92,14.66,14.66,0,0,0,5.81,1.15,13.37,13.37,0,0,0,5.57-1.15,12.9,12.9,0,0,0,4.38-3.23,13.41,13.41,0,0,0,2.77-4.71,18,18,0,0,0,1-5.92V118.51a6.15,6.15,0,0,1,.53-2.56,7,7,0,0,1,6.25-4.09,6.36,6.36,0,0,1,4.66,2A6.55,6.55,0,0,1,452.2,116a6.48,6.48,0,0,1,.52,2.56V142a29.69,29.69,0,0,1-2,10.93,28.71,28.71,0,0,1-5.67,9.05,25.75,25.75,0,0,1-8.64,6.15,26.06,26.06,0,0,1-10.67,2.19" transform="translate(-31.52 -33.59)"/><path class="cls-1" d="M312.76,157a15.73,15.73,0,0,0,14.62-9.79,16,16,0,0,0,0-12.22,15.82,15.82,0,0,0-3.36-5.1,15.36,15.36,0,0,0-5.1-3.4,15.89,15.89,0,0,0-6.16-1.22,15.71,15.71,0,0,0-6.06,1.2,15.52,15.52,0,0,0-5.1,3.42,15.34,15.34,0,0,0-3.41,5.1,16,16,0,0,0,0,12.22,16.22,16.22,0,0,0,8.45,8.56,15.38,15.38,0,0,0,6.12,1.23m0,13.31A28.24,28.24,0,0,1,301.54,168a29.58,29.58,0,0,1-15.68-15.68,28.37,28.37,0,0,1-2.25-11.26,28.8,28.8,0,0,1,2.27-11.3,30,30,0,0,1,6.31-9.44,29.25,29.25,0,0,1,9.35-6.3A28.91,28.91,0,0,1,324,114a29,29,0,0,1,9.38,6.32,30.06,30.06,0,0,1,6.28,9.42,28.83,28.83,0,0,1,2.23,11.32v24.38a29.78,29.78,0,0,1-2,10.94,28.94,28.94,0,0,1-5.67,9,25.82,25.82,0,0,1-8.64,6.14,26.22,26.22,0,0,1-10.67,2.19c-10.65,0-10.34-13.31,0-13.31a13.37,13.37,0,0,0,5.57-1.15,13,13,0,0,0,4.38-3.23,13.63,13.63,0,0,0,2.76-4.71,18,18,0,0,0,1-5.77A28.52,28.52,0,0,1,312.76,170.27Z" transform="translate(-31.52 -33.59)"/><path class="cls-2" d="M156,179.12l-1.89-16.56-8.25-72.11c-.76-6.62-4.52-12.38-10.11-14.77V95.43a4.37,4.37,0,0,1-4.37,4.37H119.63a4.37,4.37,0,0,1-4.36-4.37v-21h-43v21A4.37,4.37,0,0,1,68,99.8H56.22a4.36,4.36,0,0,1-4.35-4.37V75.66c-5.61,2.39-9.34,8.17-10.13,14.79L33.5,162.56l-1.9,16.56c-1,8.74,7.21,16,16,16H140C148.77,195.11,157,187.86,156,179.12ZM101,108.39l-1.72.33c-2.57,1.7-10.6,7.67-12.22,16.76l13,13.66L86.84,127.39c-11.74,3.07-16.46,16.7-16.46,16.7v1.67s4.72,13.63,16.46,16.7l13.28-11.76-13,13.66c1.62,9.1,9.65,15.07,12.22,16.76l1.72.34c3-.62,12.35-3.08,17.31-10.59l-5.55-15.28L120,171a25.32,25.32,0,0,0,11.41-2.36,41.38,41.38,0,1,1,0-47.48A25.06,25.06,0,0,0,120,118.81l-7.21,15.45L118.34,119C113.38,111.46,104,109,101,108.39Zm9.83,36.53a2.93,2.93,0,1,1-2.93-2.92A2.93,2.93,0,0,1,110.86,144.92Z" transform="translate(-31.52 -33.59)"/><path class="cls-2" d="M93.79,33.59h0a36.9,36.9,0,0,1,36.79,36.78V94.9H120.42V70.37a26.63,26.63,0,1,0-53.26,0V94.9H57V70.37A36.89,36.89,0,0,1,93.79,33.59Z" transform="translate(-31.52 -33.59)"/></svg>